<svg xmlns="http://www.w3.org/2000/svg" xmlns:xlink="http://www.w3.org/1999/xlink" width="500" zoomAndPan="magnify" viewBox="0 0 375 374.999991" height="500" preserveAspectRatio="xMidYMid meet" version="1.0"><path fill="#ff5a5f" d="M 373.542969 86.121094 C 372.167969 73.886719 368.363281 62.183594 360.476562 52.621094 C 344.496094 33.179688 314.191406 29.128906 293.035156 42.292969 C 287.691406 45.613281 283.160156 49.988281 279.480469 55.054688 C 276.082031 59.75 273.734375 65.542969 272.277344 71.132812 C 269.851562 80.488281 269.890625 90.332031 272.480469 99.566406 C 270.984375 97.988281 269.488281 96.449219 267.988281 94.910156 C 263.175781 90.050781 258.160156 85.390625 252.820312 81.136719 C 242.421875 72.835938 230.203125 66.191406 216.933594 64.003906 C 204.429688 61.9375 191.6875 63.800781 180.601562 70.082031 C 170.40625 75.871094 162.074219 84.824219 156.207031 94.910156 C 150.097656 105.402344 146.496094 117.351562 145.6875 129.460938 C 144.835938 142.625 147.667969 156.113281 152.566406 168.304688 C 163.082031 194.308594 182.382812 215.820312 203.824219 233.4375 C 226.359375 251.988281 251.605469 266.816406 278.996094 277.023438 C 282.273438 278.238281 285.589844 279.410156 288.90625 280.503906 C 291.617188 281.398438 294.976562 279.492188 295.582031 276.699219 C 296.269531 273.742188 294.691406 270.863281 291.777344 270.015625 C 290.363281 269.570312 288.988281 269.125 287.570312 268.679688 C 287.570312 266.003906 287.734375 263.289062 288.015625 260.617188 C 288.058594 260.292969 288.097656 259.96875 288.136719 259.644531 C 288.179688 259.484375 288.179688 259.28125 288.21875 259.160156 C 288.339844 258.347656 288.503906 257.5 288.625 256.6875 C 288.945312 254.90625 289.351562 253.082031 289.796875 251.339844 C 290.6875 247.777344 291.820312 244.253906 293.113281 240.851562 C 293.398438 240.121094 293.679688 239.433594 293.964844 238.703125 C 294.085938 238.421875 294.207031 238.136719 294.328125 237.851562 C 294.410156 237.691406 294.652344 237.125 294.691406 237.003906 C 295.421875 235.300781 296.230469 233.601562 297.039062 231.941406 C 300.273438 225.335938 304.117188 219.019531 308.246094 212.902344 C 310.269531 209.90625 312.371094 206.988281 314.554688 204.113281 C 314.839844 203.746094 315.121094 203.382812 315.40625 202.976562 C 315.445312 202.9375 315.769531 202.492188 315.890625 202.332031 C 316.417969 201.640625 316.945312 200.992188 317.46875 200.34375 C 318.644531 198.886719 319.816406 197.386719 320.988281 195.929688 C 339.234375 173.570312 359.992188 150.96875 369.296875 123.34375 C 373.300781 111.476562 375 98.554688 373.542969 86.121094 Z M 155.074219 143.476562 C 154.953125 142.789062 155.03125 143.273438 155.074219 143.476562 Z M 364.238281 118.242188 C 360.03125 130.878906 352.546875 142.542969 344.414062 153.195312 C 336.160156 164.050781 326.085938 174.707031 316.984375 185.316406 C 298.132812 207.3125 280.007812 231.941406 276.445312 261.550781 C 276.324219 262.601562 276.203125 263.613281 276.121094 264.667969 C 274.746094 264.140625 273.371094 263.613281 271.996094 263.046875 C 271.265625 262.765625 270.539062 262.480469 269.851562 262.15625 C 269.40625 261.996094 269 261.792969 268.554688 261.628906 C 268.597656 261.628906 268.070312 261.425781 267.828125 261.304688 C 267.546875 261.183594 267.179688 261.023438 267.222656 261.0625 C 266.777344 260.859375 266.371094 260.699219 265.925781 260.496094 C 265.078125 260.132812 264.226562 259.726562 263.378906 259.363281 C 260.261719 257.945312 257.148438 256.484375 254.074219 254.945312 C 241.691406 248.75 229.71875 241.578125 218.632812 233.355469 C 215.597656 231.089844 213.738281 229.671875 210.703125 227.199219 C 208.03125 225.054688 205.441406 222.824219 202.855469 220.558594 C 197.878906 216.140625 193.101562 211.566406 188.53125 206.703125 C 186.183594 204.195312 183.878906 201.601562 181.695312 198.96875 C 180.722656 197.835938 179.792969 196.660156 178.863281 195.484375 C 178.621094 195.203125 178.417969 194.917969 178.175781 194.59375 C 178.09375 194.472656 177.648438 193.90625 177.648438 193.90625 C 177.121094 193.175781 176.554688 192.488281 176.03125 191.757812 C 172.1875 186.492188 168.667969 180.945312 165.59375 175.191406 C 164.824219 173.773438 164.09375 172.316406 163.40625 170.859375 C 163.082031 170.210938 162.800781 169.519531 162.476562 168.871094 C 162.273438 168.46875 162.113281 168.0625 161.949219 167.65625 C 161.828125 167.375 161.707031 167.132812 161.585938 166.847656 C 161.546875 166.765625 161.546875 166.726562 161.507812 166.644531 C 161.425781 166.484375 161.140625 165.792969 161.183594 165.875 C 161.019531 165.46875 160.859375 165.066406 160.695312 164.660156 C 160.414062 163.972656 160.171875 163.28125 159.929688 162.59375 C 159.320312 160.933594 158.753906 159.273438 158.230469 157.613281 C 157.296875 154.535156 156.488281 151.414062 155.84375 148.296875 C 155.519531 146.714844 155.277344 145.136719 155.03125 143.515625 C 155.03125 143.476562 155.03125 143.433594 155.03125 143.394531 C 154.992188 142.949219 154.910156 142.542969 154.871094 142.097656 C 154.789062 141.207031 154.667969 140.355469 154.628906 139.464844 C 154.386719 136.550781 154.304688 133.671875 154.464844 130.757812 C 154.507812 129.421875 154.628906 128.125 154.75 126.789062 C 154.789062 126.421875 154.832031 126.019531 154.871094 125.652344 C 154.871094 125.652344 154.910156 125.410156 154.910156 125.207031 C 154.953125 125.003906 154.992188 124.558594 154.992188 124.558594 C 155.074219 124.074219 155.15625 123.546875 155.234375 123.0625 C 156.164062 117.632812 157.703125 112.367188 159.765625 107.304688 C 159.847656 107.101562 159.96875 106.777344 160.007812 106.695312 C 160.171875 106.332031 160.332031 106.007812 160.453125 105.644531 C 160.695312 105.078125 160.980469 104.511719 161.261719 103.941406 C 161.910156 102.648438 162.558594 101.351562 163.285156 100.09375 C 164.660156 97.625 166.160156 95.273438 167.816406 93.007812 C 167.980469 92.804688 168.101562 92.601562 168.261719 92.398438 C 168.304688 92.359375 168.546875 92.035156 168.667969 91.871094 C 168.992188 91.46875 169.316406 91.0625 169.636719 90.65625 C 170.570312 89.523438 171.539062 88.390625 172.589844 87.335938 C 174.453125 85.390625 176.394531 83.570312 178.5 81.867188 C 178.578125 81.828125 178.941406 81.542969 179.023438 81.421875 C 179.226562 81.261719 179.429688 81.136719 179.632812 80.976562 C 180.117188 80.613281 180.601562 80.246094 181.128906 79.921875 C 182.261719 79.152344 183.433594 78.382812 184.648438 77.695312 C 185.738281 77.046875 186.871094 76.480469 188.003906 75.914062 C 188.613281 75.628906 189.21875 75.386719 189.828125 75.0625 C 189.867188 75.023438 189.949219 75.023438 189.988281 74.980469 C 189.339844 75.265625 189.460938 75.183594 190.351562 74.820312 C 190.433594 74.777344 191.203125 74.496094 191.324219 74.453125 C 193.832031 73.484375 196.421875 72.753906 199.050781 72.1875 C 199.65625 72.066406 200.265625 71.945312 200.871094 71.863281 C 201.113281 71.820312 201.355469 71.78125 201.640625 71.742188 C 201.761719 71.742188 202.410156 71.660156 202.488281 71.660156 C 204.066406 71.496094 205.605469 71.375 207.183594 71.375 C 208.71875 71.335938 210.257812 71.375 211.792969 71.496094 C 212.484375 71.539062 213.171875 71.621094 213.859375 71.660156 C 214.222656 71.699219 214.546875 71.742188 214.910156 71.78125 C 215.070312 71.820312 215.597656 71.902344 215.679688 71.902344 C 218.835938 72.390625 221.949219 73.160156 224.945312 74.171875 C 230.648438 76.035156 235.867188 78.625 241.289062 81.90625 C 246.871094 85.308594 252.292969 88.835938 257.390625 92.84375 C 262.570312 96.894531 267.546875 101.230469 272.359375 105.683594 C 273.53125 106.777344 279.238281 112.207031 280.25 113.300781 C 280.9375 114.027344 281.90625 113.097656 281.542969 112.285156 C 280.410156 109.613281 279.84375 106.820312 278.832031 104.144531 C 277.820312 101.472656 277.09375 98.675781 276.609375 95.839844 C 275.675781 90.535156 275.675781 84.945312 276.566406 79.71875 C 277.539062 74.050781 279.316406 68.785156 282.027344 63.921875 C 284.820312 58.941406 287.894531 54.929688 292.183594 51.203125 C 300.519531 43.953125 312.046875 40.511719 323.214844 40.835938 C 334.339844 41.160156 345.585938 45.371094 353.679688 53.351562 C 361.648438 61.210938 366.789062 72.226562 368.121094 83.367188 C 369.496094 95.113281 367.960938 107.0625 364.238281 118.242188 Z M 364.238281 118.242188 " fill-opacity="1" fill-rule="nonzero"/><path fill="#ff5a5f" d="M 5.703125 188.113281 C 15.007812 215.777344 35.765625 238.339844 53.96875 260.78125 C 55.144531 262.238281 56.316406 263.695312 57.488281 265.195312 C 58.015625 265.84375 58.542969 266.53125 59.066406 267.179688 C 59.230469 267.382812 59.554688 267.785156 59.554688 267.828125 C 59.835938 268.191406 60.121094 268.554688 60.402344 268.960938 C 62.585938 271.835938 64.691406 274.753906 66.714844 277.75 C 70.839844 283.828125 74.683594 290.144531 77.921875 296.789062 C 78.730469 298.449219 79.539062 300.152344 80.265625 301.851562 C 80.308594 301.972656 80.550781 302.539062 80.632812 302.703125 C 80.753906 302.984375 80.875 303.269531 80.996094 303.554688 C 81.277344 304.28125 81.5625 304.96875 81.84375 305.699219 C 83.140625 309.144531 84.273438 312.625 85.164062 316.191406 C 85.609375 317.972656 86.011719 319.753906 86.335938 321.539062 C 86.496094 322.347656 86.621094 323.199219 86.742188 324.007812 C 86.742188 324.128906 86.78125 324.332031 86.820312 324.496094 C 86.863281 324.816406 86.902344 325.140625 86.941406 325.464844 C 87.226562 328.140625 87.386719 330.8125 87.386719 333.527344 C 85.972656 333.972656 84.597656 334.417969 83.179688 334.863281 C 80.265625 335.753906 78.730469 338.628906 79.378906 341.546875 C 80.023438 344.34375 83.382812 346.246094 86.054688 345.355469 C 89.371094 344.261719 92.6875 343.125 95.964844 341.871094 C 123.3125 331.664062 148.558594 316.796875 171.136719 298.289062 C 192.578125 280.667969 211.875 259.160156 222.394531 233.15625 C 227.289062 220.960938 230.164062 207.472656 229.273438 194.308594 C 228.464844 182.199219 224.863281 170.289062 218.753906 159.757812 C 212.886719 149.671875 204.554688 140.722656 194.359375 134.929688 C 183.273438 128.652344 170.527344 126.828125 158.027344 128.855469 C 144.757812 131.039062 132.539062 137.683594 122.140625 145.988281 C 116.800781 150.242188 111.785156 154.898438 106.96875 159.757812 C 105.433594 161.296875 103.933594 162.835938 102.480469 164.417969 C 105.066406 155.183594 105.109375 145.339844 102.679688 135.984375 C 101.222656 130.394531 98.878906 124.601562 95.480469 119.902344 C 91.796875 114.796875 87.265625 110.464844 81.925781 107.144531 C 60.765625 93.976562 30.464844 98.027344 14.484375 117.429688 C 6.59375 126.949219 2.832031 138.65625 1.414062 150.886719 C 0 163.324219 1.699219 176.246094 5.703125 188.113281 Z M 219.925781 208.242188 C 219.96875 208.042969 220.007812 207.554688 219.925781 208.242188 Z M 6.878906 148.175781 C 8.171875 137.074219 13.351562 126.019531 21.320312 118.160156 C 29.414062 110.179688 40.660156 105.96875 51.785156 105.644531 C 62.953125 105.320312 74.441406 108.761719 82.816406 116.011719 C 87.105469 119.738281 90.179688 123.75 92.972656 128.730469 C 95.722656 133.632812 97.503906 138.859375 98.433594 144.527344 C 99.324219 149.753906 99.324219 155.382812 98.390625 160.648438 C 97.90625 163.484375 97.136719 166.238281 96.167969 168.953125 C 95.15625 171.628906 94.589844 174.421875 93.457031 177.09375 C 93.09375 177.90625 94.0625 178.835938 94.75 178.109375 C 95.761719 177.054688 101.46875 171.585938 102.640625 170.492188 C 107.496094 166.039062 112.429688 161.703125 117.609375 157.652344 C 122.746094 153.644531 128.167969 150.117188 133.710938 146.714844 C 139.132812 143.433594 144.351562 140.84375 150.054688 138.980469 C 153.089844 138.007812 156.207031 137.238281 159.320312 136.710938 C 159.402344 136.710938 159.929688 136.628906 160.089844 136.589844 C 160.453125 136.550781 160.777344 136.507812 161.140625 136.46875 C 161.828125 136.386719 162.515625 136.347656 163.207031 136.304688 C 164.742188 136.183594 166.28125 136.144531 167.816406 136.183594 C 169.394531 136.226562 170.933594 136.304688 172.511719 136.46875 C 172.589844 136.46875 173.199219 136.550781 173.359375 136.550781 C 173.601562 136.589844 173.84375 136.628906 174.128906 136.671875 C 174.734375 136.753906 175.34375 136.875 175.949219 136.996094 C 178.578125 137.523438 181.167969 138.292969 183.675781 139.261719 C 183.796875 139.304688 184.566406 139.628906 184.648438 139.628906 C 185.496094 139.992188 185.617188 140.03125 185.011719 139.789062 C 185.050781 139.832031 185.132812 139.832031 185.171875 139.871094 C 185.78125 140.15625 186.386719 140.398438 186.996094 140.722656 C 188.128906 141.289062 189.261719 141.855469 190.351562 142.503906 C 191.566406 143.191406 192.738281 143.960938 193.871094 144.730469 C 194.359375 145.054688 194.84375 145.421875 195.367188 145.785156 C 195.570312 145.945312 195.773438 146.066406 195.976562 146.230469 C 196.097656 146.3125 196.460938 146.59375 196.5 146.675781 C 198.605469 148.378906 200.546875 150.199219 202.410156 152.144531 C 203.421875 153.238281 204.390625 154.332031 205.363281 155.464844 C 205.6875 155.871094 206.007812 156.277344 206.332031 156.679688 C 206.453125 156.84375 206.695312 157.167969 206.738281 157.207031 C 206.898438 157.410156 207.019531 157.613281 207.183594 157.816406 C 208.839844 160.082031 210.339844 162.472656 211.714844 164.902344 C 212.402344 166.160156 213.089844 167.457031 213.738281 168.75 C 214.019531 169.316406 214.261719 169.886719 214.546875 170.453125 C 214.707031 170.816406 214.871094 171.140625 214.992188 171.503906 C 215.03125 171.585938 215.152344 171.910156 215.234375 172.113281 C 217.296875 177.21875 218.835938 182.484375 219.765625 187.871094 C 219.84375 188.355469 219.925781 188.882812 220.007812 189.367188 C 220.007812 189.367188 220.046875 189.773438 220.089844 190.015625 C 220.128906 190.21875 220.128906 190.460938 220.128906 190.460938 C 220.167969 190.828125 220.210938 191.230469 220.25 191.597656 C 220.371094 192.890625 220.492188 194.230469 220.535156 195.566406 C 220.65625 198.480469 220.574219 201.398438 220.371094 204.273438 C 220.289062 205.164062 220.210938 206.015625 220.128906 206.90625 C 220.089844 207.351562 220.007812 207.757812 219.96875 208.203125 C 219.96875 208.242188 219.96875 208.285156 219.96875 208.324219 C 219.722656 209.90625 219.480469 211.523438 219.15625 213.105469 C 218.511719 216.265625 217.742188 219.382812 216.769531 222.421875 C 216.246094 224.082031 215.679688 225.742188 215.070312 227.402344 C 214.828125 228.089844 214.546875 228.78125 214.304688 229.46875 C 214.140625 229.875 213.980469 230.277344 213.816406 230.683594 C 213.859375 230.601562 213.574219 231.292969 213.492188 231.453125 C 213.453125 231.492188 213.453125 231.574219 213.414062 231.65625 C 213.292969 231.941406 213.171875 232.183594 213.046875 232.464844 C 212.886719 232.871094 212.683594 233.277344 212.523438 233.679688 C 212.199219 234.371094 211.914062 235.019531 211.59375 235.667969 C 210.90625 237.125 210.175781 238.582031 209.40625 240 C 206.332031 245.792969 202.8125 251.300781 198.96875 256.566406 C 198.445312 257.296875 197.917969 258.023438 197.351562 258.714844 C 197.351562 258.714844 196.90625 259.28125 196.824219 259.402344 C 196.582031 259.6875 196.378906 259.96875 196.136719 260.292969 C 195.207031 261.46875 194.277344 262.644531 193.304688 263.777344 C 191.082031 266.410156 188.816406 269 186.46875 271.511719 C 181.9375 276.375 177.121094 280.949219 172.144531 285.367188 C 169.597656 287.632812 166.96875 289.863281 164.296875 292.007812 C 161.261719 294.480469 159.441406 295.898438 156.367188 298.164062 C 145.242188 306.386719 133.265625 313.558594 120.925781 319.753906 C 117.851562 321.292969 114.777344 322.753906 111.621094 324.171875 C 110.773438 324.535156 109.921875 324.941406 109.074219 325.304688 C 108.628906 325.507812 108.222656 325.667969 107.777344 325.871094 C 107.820312 325.871094 107.453125 326.035156 107.171875 326.113281 C 106.929688 326.234375 106.402344 326.4375 106.445312 326.4375 C 106 326.601562 105.59375 326.804688 105.148438 326.964844 C 104.421875 327.25 103.691406 327.53125 103.003906 327.855469 C 101.628906 328.421875 100.253906 328.949219 98.878906 329.476562 C 98.796875 328.421875 98.714844 327.371094 98.554688 326.359375 C 94.992188 296.75 76.867188 272.121094 58.015625 250.125 C 48.914062 239.472656 38.839844 228.820312 30.585938 218.003906 C 22.453125 207.351562 14.96875 195.648438 10.761719 183.050781 C 7.039062 171.828125 5.503906 159.878906 6.878906 148.175781 Z M 6.878906 148.175781 " fill-opacity="1" fill-rule="nonzero"/></svg>