<svg xmlns="http://www.w3.org/2000/svg" xmlns:xlink="http://www.w3.org/1999/xlink" width="500" zoomAndPan="magnify" viewBox="0 0 375 374.999991" height="500" preserveAspectRatio="xMidYMid meet" version="1.0"><defs><clipPath id="2a91099555"><path d="M 2 30.46875 L 373 30.46875 L 373 211 L 2 211 Z M 2 30.46875 " clip-rule="nonzero"/></clipPath><clipPath id="445db4261b"><path d="M 56 98 L 319 98 L 319 344.71875 L 56 344.71875 Z M 56 98 " clip-rule="nonzero"/></clipPath></defs><g clip-path="url(#2a91099555)"><path fill="#001f3f" d="M 366.847656 179.59375 L 199.007812 34.707031 C 198.890625 34.613281 198.773438 34.535156 198.660156 34.441406 C 198.398438 34.226562 198.144531 34.019531 197.871094 33.824219 C 197.660156 33.671875 197.449219 33.527344 197.242188 33.386719 C 196.972656 33.203125 196.703125 33.035156 196.429688 32.875 C 196.191406 32.734375 195.957031 32.601562 195.707031 32.476562 C 195.453125 32.34375 195.195312 32.214844 194.933594 32.09375 C 194.664062 31.972656 194.386719 31.847656 194.113281 31.734375 C 193.875 31.640625 193.628906 31.546875 193.382812 31.460938 C 193.085938 31.351562 192.789062 31.257812 192.488281 31.171875 C 192.253906 31.097656 192.011719 31.039062 191.777344 30.980469 C 191.460938 30.902344 191.152344 30.828125 190.839844 30.769531 C 190.597656 30.726562 190.359375 30.6875 190.113281 30.652344 C 189.804688 30.601562 189.492188 30.5625 189.179688 30.539062 C 188.925781 30.515625 188.671875 30.496094 188.417969 30.484375 C 188.113281 30.472656 187.824219 30.460938 187.523438 30.460938 C 187.25 30.460938 186.980469 30.472656 186.707031 30.484375 C 186.429688 30.496094 186.144531 30.515625 185.863281 30.542969 C 185.582031 30.5625 185.289062 30.601562 185.015625 30.640625 C 184.742188 30.683594 184.480469 30.726562 184.207031 30.777344 C 183.921875 30.835938 183.632812 30.902344 183.34375 30.972656 C 183.078125 31.035156 182.828125 31.101562 182.566406 31.179688 C 182.289062 31.261719 182.007812 31.347656 181.734375 31.449219 C 181.464844 31.539062 181.203125 31.640625 180.9375 31.75 C 180.683594 31.855469 180.433594 31.960938 180.175781 32.085938 C 179.902344 32.210938 179.621094 32.347656 179.347656 32.488281 C 179.117188 32.613281 178.898438 32.734375 178.683594 32.863281 C 178.386719 33.03125 178.101562 33.210938 177.832031 33.398438 C 177.625 33.53125 177.433594 33.671875 177.226562 33.816406 C 176.949219 34.015625 176.679688 34.230469 176.414062 34.449219 C 176.300781 34.539062 176.191406 34.617188 176.074219 34.707031 L 121.0625 82.203125 L 121.0625 63.089844 C 121.0625 57.898438 116.8125 53.640625 111.613281 53.640625 L 79.101562 53.640625 C 73.902344 53.640625 69.65625 57.898438 69.65625 63.089844 L 69.65625 126.578125 L 8.242188 179.59375 C 0.902344 185.929688 0.0898438 197.019531 6.421875 204.34375 C 9.890625 208.371094 14.789062 210.4375 19.71875 210.4375 C 23.773438 210.4375 27.859375 209.027344 31.171875 206.167969 L 187.539062 71.175781 L 343.910156 206.167969 C 347.226562 209.027344 351.308594 210.4375 355.375 210.4375 C 360.296875 210.4375 365.191406 208.371094 368.664062 204.34375 C 374.996094 197.019531 374.179688 185.929688 366.847656 179.59375 " fill-opacity="1" fill-rule="nonzero"/></g><g clip-path="url(#445db4261b)"><path fill="#001f3f" d="M 253.90625 224.074219 C 251.675781 247.453125 200.085938 291.246094 187.539062 313.785156 C 174.996094 291.246094 123.414062 247.453125 121.179688 224.074219 C 118.957031 200.6875 134.34375 186 153.375 186 C 167.925781 186 182.152344 197.785156 187.207031 211.617188 C 187.34375 211.984375 187.457031 212.539062 187.539062 213.230469 C 187.636719 212.539062 187.75 211.984375 187.878906 211.617188 C 192.9375 197.785156 207.15625 186 221.707031 186 C 240.742188 186 256.128906 200.6875 253.90625 224.074219 M 308.261719 198.027344 L 197.765625 102.628906 C 192.140625 97.78125 182.941406 97.78125 177.324219 102.628906 L 66.820312 198.027344 C 61.203125 202.878906 56.601562 212.925781 56.601562 220.347656 L 56.601562 331.039062 C 56.601562 338.460938 62.675781 344.539062 70.101562 344.539062 L 304.980469 344.539062 C 312.402344 344.539062 318.480469 338.460938 318.480469 331.039062 L 318.480469 220.347656 C 318.480469 212.925781 313.882812 202.875 308.261719 198.027344 " fill-opacity="1" fill-rule="nonzero"/></g></svg>